<?xml version="1.0" encoding="UTF-8" standalone="no"?>
<svg
   xmlns:dc="http://purl.org/dc/elements/1.1/"
   xmlns:cc="http://creativecommons.org/ns#"
   xmlns:rdf="http://www.w3.org/1999/02/22-rdf-syntax-ns#"
   xmlns:svg="http://www.w3.org/2000/svg"
   xmlns="http://www.w3.org/2000/svg"
   xmlns:sodipodi="http://sodipodi.sourceforge.net/DTD/sodipodi-0.dtd"
   xmlns:inkscape="http://www.inkscape.org/namespaces/inkscape"
   fill="#FFFFFF"
   height="24"
   viewBox="0 0 24 24"
   width="24"
   id="svg4140"
   version="1.1"
   inkscape:version="0.91 r"
   sodipodi:docname="ic_add_location_white_24px.svg">
  <metadata
     id="metadata4150">
    <rdf:RDF>
      <cc:Work
         rdf:about="">
        <dc:format>image/svg+xml</dc:format>
        <dc:type
           rdf:resource="http://purl.org/dc/dcmitype/StillImage" />
      </cc:Work>
    </rdf:RDF>
  </metadata>
  <defs
     id="defs4148" />
  <sodipodi:namedview
     pagecolor="#ffffff"
     bordercolor="#666666"
     borderopacity="1"
     objecttolerance="10"
     gridtolerance="10"
     guidetolerance="10"
     inkscape:pageopacity="0"
     inkscape:pageshadow="2"
     inkscape:window-width="1920"
     inkscape:window-height="1018"
     id="namedview4146"
     showgrid="false"
     inkscape:zoom="7.4583333"
     inkscape:cx="-8.2861304"
     inkscape:cy="27.157449"
     inkscape:window-x="1912"
     inkscape:window-y="-8"
     inkscape:window-maximized="1"
     inkscape:current-layer="svg4140" />
  <path
     d="M0 0h24v24H0V0z"
     fill="none"
     id="path4142" />
  <g
     id="g6462"
     inkscape:export-filename="C:\Users\tluce\Desktop\g6462.png"
     inkscape:export-xdpi="134.45503"
     inkscape:export-ydpi="134.45503">
    <path
       sodipodi:nodetypes="scsssscscccssssccccc"
       style="fill:#808080;fill-opacity:1"
       id="path4696"
       d="m -0.86629661,12.487149 -3.99999999,0 2.5168207,-0.993272 c 1.0325021,-0.40748 0.050678,-0.5 -1.059322,-0.5 l -4.0000004,0 c -1.11,0 -1.9081759,0.09252 -2.9406777,0.5 l -2.516821,0.993272 -4,0 c -1.11,0 -0.65968,-0.08077 -1.666408,0.130361 l -9.861556,3.557402 c 1.33032,-0.507956 -2.813322,0.597771 -1.775231,1.460681 l 16,0 c 1.11,0 0.944335,0.177401 1.676409,-0.09441 l 11.62286644,-4.315438 c 1.0405897,-0.386359 0.7500121,-0.738596 0.00392,-0.738596 z m -5.99999999,0 -4.0000004,0 2.5168207,-0.993272 4.0000004,0 z"
       inkscape:connector-curvature="0" />
    <path
       style="fill:#4d4d4d"
       id="path5308"
       d="m -13.915254,2.7881356 -4,0 0,-2.00000002 c 0,-1.11000001 -0.89,-1.99999998 -2,-1.99999998 l -4,0 c -1.11,0 -2,0.88999997 -2,1.99999998 l 0,2.00000002 -4,0 c -1.11,0 -1.99,0.89 -1.99,2 l -0.01,10.9999994 c 0,1.11 0.89,2 2,2 l 16,0 c 1.11,0 2,-0.89 2,-2 l 0,-10.9999994 c 0,-1.11 -0.89,-2 -2,-2 z m -6,0 -4,0 0,-2.00000002 4,0 0,2.00000002 z"
       inkscape:connector-curvature="0" />
    <g
       style="fill:#6a74ac;fill-opacity:1"
       transform="translate(-0.24974685,-0.41101329)"
       id="g6453">
      <path
         inkscape:connector-curvature="0"
         d="m -31.783851,-0.85365756 c -2.21,0 -4,1.79 -4,3.99999996 0,2.21 1.79,4 4,4 2.21,0 4,-1.79 4,-4 0,-2.20999996 -1.79,-3.99999996 -4,-3.99999996 z m 8.94,2.99999996 c -0.46,-4.17 -3.77,-7.48 -7.94,-7.94 l 0,-2.0599999 -2,0 0,2.0599999 c -4.17,0.46 -7.48,3.77 -7.94,7.94 l -2.06,0 0,2 2.06,0 c 0.46,4.17 3.77,7.4799996 7.94,7.9399996 l 0,2.06 2,0 0,-2.06 c 4.17,-0.46 7.48,-3.7699996 7.94,-7.9399996 l 2.06,0 0,-2 -2.06,0 z m -8.94,7.9999996 c -3.87,0 -7,-3.1299996 -7,-6.9999996 0,-3.86999996 3.13,-7 7,-7 3.87,0 7,3.13000004 7,7 0,3.87 -3.13,6.9999996 -7,6.9999996 z"
         id="path5890"
         style="fill:#6a74ac;fill-opacity:1" />
    </g>
  </g>
</svg>
